<?xml version="1.0" encoding="utf-8"?>
<!-- Generator: Adobe Illustrator 15.0.0, SVG Export Plug-In . SVG Version: 6.00 Build 0)  -->
<!DOCTYPE svg PUBLIC "-//W3C//DTD SVG 1.1//EN" "http://www.w3.org/Graphics/SVG/1.1/DTD/svg11.dtd">
<svg version="1.1" id="Layer_1" xmlns="http://www.w3.org/2000/svg" xmlns:xlink="http://www.w3.org/1999/xlink" x="0px" y="0px"
	 width="20px" height="20px" viewBox="0 0 20 20" enable-background="new 0 0 20 20" xml:space="preserve">
<g transform="translate(0,-952.36218)">
	<path d="M18.889,952.362c0.23,0.021,0.442,0.232,0.444,0.444v19.111c0,0.233-0.211,0.444-0.444,0.444H7.333H1.111
		c-0.245,0-0.444-0.199-0.444-0.444v-15.111c0-0.245,0.2-0.444,0.444-0.444h5.777v-3.556c0-0.232,0.212-0.444,0.445-0.444H18.889z
		 M18.443,953.251H7.778v18.223h3.555v-2.222c0-0.234,0.212-0.445,0.444-0.445h2.667c0.261,0.013,0.438,0.245,0.444,0.445v2.222
		h3.555V953.251z M17.111,954.14c0.246,0.007,0.444,0.247,0.444,0.444v3.111c0,0.233-0.212,0.444-0.444,0.444H14
		c-0.233,0-0.444-0.211-0.444-0.444v-3.111c0-0.232,0.211-0.444,0.444-0.444H17.111z M12.222,954.14
		c0.246,0.007,0.446,0.247,0.445,0.444v3.111c0,0.233-0.213,0.444-0.445,0.444h-3.11c-0.233,0-0.445-0.211-0.445-0.444v-3.111
		c0-0.232,0.212-0.444,0.445-0.444H12.222z M16.666,955.029l-2.222-0.001v2.223l2.222,0.001V955.029z M11.777,955.028H9.556v2.223
		h2.222V955.028z M6.889,957.251H1.557v14.223h5.332V957.251z M5.556,958.14c0.232,0.008,0.438,0.244,0.445,0.444v2.667
		c0,0.233-0.212,0.444-0.445,0.444H2.889c-0.232,0-0.445-0.211-0.445-0.444v-2.667c0-0.232,0.213-0.444,0.445-0.444H5.556z
		 M17.111,959.028c0.246,0.007,0.444,0.248,0.444,0.445v3.11c0,0.232-0.212,0.445-0.444,0.445H14c-0.233,0-0.444-0.213-0.444-0.445
		v-3.11c0-0.233,0.211-0.445,0.444-0.445H17.111z M12.222,959.028c0.246,0.007,0.446,0.248,0.445,0.445v3.11
		c0,0.232-0.213,0.445-0.445,0.445h-3.11c-0.233,0-0.445-0.213-0.445-0.445v-3.11c0-0.233,0.212-0.445,0.445-0.445H12.222z
		 M5.111,959.028H3.333v1.778h1.777V959.028z M16.666,959.918h-2.222v2.222h2.222V959.918z M11.777,959.917H9.556v2.223h2.222
		V959.917z M5.556,962.584c0.232,0.008,0.438,0.244,0.445,0.445v2.667c0,0.232-0.212,0.443-0.445,0.443H2.889
		c-0.232,0-0.445-0.212-0.445-0.443v-2.667c0-0.233,0.213-0.445,0.445-0.445H5.556z M5.111,963.473H3.333v1.778h1.777V963.473z
		 M17.111,963.917c0.246,0.007,0.444,0.247,0.444,0.445v3.111c0,0.232-0.212,0.444-0.444,0.444H14c-0.233,0-0.444-0.212-0.444-0.444
		v-3.111c0-0.232,0.211-0.445,0.444-0.445H17.111L17.111,963.917z M12.222,963.917c0.246,0.007,0.446,0.247,0.445,0.445v3.111
		c0,0.232-0.213,0.444-0.445,0.444h-3.11c-0.233,0-0.445-0.212-0.445-0.444v-3.111c0-0.232,0.212-0.445,0.445-0.445H12.222
		L12.222,963.917z M16.666,964.807l-2.222-0.001v2.224h2.222V964.807z M11.777,964.806H9.556v2.224h2.222V964.806z M5.556,967.029
		c0.232,0.007,0.438,0.245,0.445,0.444v2.667c0,0.232-0.212,0.443-0.445,0.443H2.889c-0.232,0-0.445-0.211-0.445-0.443v-2.667
		c0-0.233,0.213-0.444,0.445-0.444H5.556L5.556,967.029z M5.111,967.918H3.333v1.776h1.777V967.918z M14,969.694h-1.778v1.779H14
		V969.694z"/>
</g>
</svg>
