<?xml version="1.0" encoding="utf-8"?>
<!-- Generator: Adobe Illustrator 15.0.0, SVG Export Plug-In . SVG Version: 6.00 Build 0)  -->
<!DOCTYPE svg PUBLIC "-//W3C//DTD SVG 1.1//EN" "http://www.w3.org/Graphics/SVG/1.1/DTD/svg11.dtd">
<svg version="1.1" id="Layer_1" xmlns="http://www.w3.org/2000/svg" xmlns:xlink="http://www.w3.org/1999/xlink" x="0px" y="0px"
	 width="20px" height="20px" viewBox="0 0 20 20" enable-background="new 0 0 20 20" xml:space="preserve">
<g>
	<g>
		<path d="M5.044,8.476c-0.066,0-0.132,0.025-0.182,0.074L3.594,9.818C3.548,9.865,3.52,9.929,3.52,10
			c0,0.071,0.028,0.135,0.075,0.182l1.268,1.268c0.05,0.05,0.116,0.075,0.182,0.075c0.065,0,0.125-0.025,0.176-0.075
			c0.05-0.05,0.079-0.115,0.079-0.182c0-0.064-0.029-0.13-0.079-0.181l-0.827-0.832h11.214l-0.827,0.832
			c-0.049,0.051-0.08,0.116-0.08,0.181c0,0.066,0.031,0.132,0.08,0.182c0.051,0.05,0.111,0.075,0.177,0.075s0.131-0.025,0.181-0.075
			l1.269-1.268c0.047-0.046,0.075-0.111,0.075-0.182c0-0.07-0.028-0.135-0.075-0.181L15.138,8.55
			c-0.05-0.049-0.115-0.074-0.181-0.074S14.831,8.5,14.78,8.55C14.731,8.6,14.7,8.666,14.7,8.731c0,0.066,0.045,0.121,0.08,0.182
			l0.827,0.832H4.394L5.22,8.913c0.05-0.05,0.079-0.116,0.079-0.182C5.299,8.666,5.27,8.6,5.22,8.55
			C5.17,8.5,5.109,8.476,5.044,8.476z"/>
		<path d="M2.837,7.569c0-0.142-0.115-0.255-0.256-0.255c-0.141,0-0.255,0.114-0.255,0.255v4.86c0,0.142,0.114,0.256,0.255,0.256
			c0.142,0,0.256-0.114,0.256-0.256V7.569z"/>
		<path d="M17.675,7.569c0-0.142-0.114-0.255-0.256-0.255c-0.141,0-0.256,0.114-0.256,0.255v4.86c0,0.142,0.115,0.256,0.256,0.256
			c0.142,0,0.256-0.114,0.256-0.256V7.569z"/>
	</g>
	<g>
		<path d="M11.524,5.044c0-0.066-0.024-0.132-0.074-0.182l-1.269-1.268C10.135,3.548,10.071,3.52,10,3.52S9.865,3.548,9.819,3.594
			L8.551,4.862C8.5,4.912,8.477,4.978,8.477,5.044c0,0.065,0.024,0.125,0.074,0.176c0.05,0.05,0.116,0.079,0.181,0.079
			c0.065,0,0.131-0.029,0.182-0.079l0.832-0.827v11.214L8.913,14.78c-0.05-0.049-0.116-0.08-0.182-0.08
			c-0.065,0-0.13,0.031-0.181,0.08c-0.05,0.051-0.074,0.111-0.074,0.177s0.024,0.131,0.074,0.181l1.269,1.269
			c0.046,0.047,0.109,0.075,0.181,0.075s0.135-0.028,0.181-0.075l1.269-1.269c0.05-0.05,0.074-0.115,0.074-0.181
			S11.5,14.831,11.45,14.78c-0.05-0.049-0.116-0.08-0.182-0.08s-0.12,0.045-0.181,0.08l-0.832,0.827V4.394l0.832,0.827
			c0.05,0.05,0.115,0.079,0.181,0.079S11.4,5.27,11.45,5.22C11.5,5.17,11.524,5.109,11.524,5.044z"/>
		<path d="M12.431,2.837c0.142,0,0.255-0.115,0.255-0.256c0-0.141-0.113-0.255-0.255-0.255H7.569c-0.14,0-0.255,0.114-0.255,0.255
			c0,0.142,0.115,0.256,0.255,0.256H12.431z"/>
		<path d="M12.431,17.674c0.142,0,0.255-0.113,0.255-0.255c0-0.141-0.113-0.256-0.255-0.256H7.569c-0.14,0-0.255,0.115-0.255,0.256
			c0,0.142,0.115,0.255,0.255,0.255H12.431z"/>
	</g>
</g>
</svg>
