<?xml version="1.0" encoding="utf-8"?>
<!-- Generator: Adobe Illustrator 15.0.0, SVG Export Plug-In . SVG Version: 6.00 Build 0)  -->
<!DOCTYPE svg PUBLIC "-//W3C//DTD SVG 1.1//EN" "http://www.w3.org/Graphics/SVG/1.1/DTD/svg11.dtd">
<svg version="1.1" id="Layer_1" xmlns="http://www.w3.org/2000/svg" xmlns:xlink="http://www.w3.org/1999/xlink" x="0px" y="0px"
	 width="20px" height="20px" viewBox="0 0 20 20" enable-background="new 0 0 20 20" xml:space="preserve">
<g>
	<path d="M17.655,4.424H10.45V3.917c3.348-0.204,4.551-1.466,4.551-2.519C15.001,0.588,14.378,0,13.519,0
		c-0.895,0-2.512,0.893-3.507,2.527C9.017,0.893,7.399,0,6.503,0C5.645,0,5.022,0.588,5.022,1.399c0,1.05,1.197,2.309,4.527,2.518
		v0.508H2.345c-0.249,0-0.45,0.201-0.45,0.449v14.677c0,0.248,0.201,0.449,0.45,0.449h15.31c0.248,0,0.449-0.201,0.449-0.449V4.874
		C18.104,4.626,17.903,4.424,17.655,4.424z M13.519,0.899c0.365,0,0.584,0.187,0.584,0.5c0,0.549-0.9,1.373-3.321,1.594
		C11.616,1.632,12.954,0.899,13.519,0.899z M5.921,1.399c0-0.313,0.218-0.5,0.582-0.5c0.566,0,1.905,0.733,2.738,2.094
		C6.821,2.772,5.921,1.948,5.921,1.399z M17.206,5.323v6.44H10.45v-6.44H17.206z M9.55,5.323v6.44H2.795v-6.44H9.55z M2.795,12.662
		H9.55v6.439H2.795V12.662z M10.45,19.102v-6.439h6.756v6.439H10.45z"/>
	<path d="M12.151,9.185c0.35,0.477,0.762,0.742,1.285,1.078c0.074,0.048,0.152,0.098,0.232,0.151l0.111,0.071l0.107-0.071
		c0.082-0.053,0.158-0.103,0.234-0.151c0.523-0.335,0.934-0.601,1.285-1.078c0.33-0.452,0.393-1.071,0.154-1.542
		c-0.193-0.382-0.547-0.601-0.971-0.601h-0.008C14.2,7.043,13.935,7.228,13.78,7.387c-0.158-0.159-0.424-0.343-0.807-0.345h-0.008
		c-0.424,0-0.777,0.219-0.971,0.601C11.757,8.113,11.819,8.732,12.151,9.185z"/>
</g>
</svg>
