<?xml version="1.0" encoding="utf-8"?>
<!-- Generator: Adobe Illustrator 15.0.0, SVG Export Plug-In . SVG Version: 6.00 Build 0)  -->
<!DOCTYPE svg PUBLIC "-//W3C//DTD SVG 1.1//EN" "http://www.w3.org/Graphics/SVG/1.1/DTD/svg11.dtd">
<svg version="1.1" id="Layer_1" xmlns="http://www.w3.org/2000/svg" xmlns:xlink="http://www.w3.org/1999/xlink" x="0px" y="0px"
	 width="100px" height="100px" viewBox="0 0 100 100" enable-background="new 0 0 100 100" xml:space="preserve">
<circle fill="#FFFFFF" cx="50" cy="50" r="50"/>
<g>
	<path fill="#33E0B0" d="M50,100C22.43,100,0,77.57,0,50C0,22.43,22.43,0,50,0s50,22.43,50,50C100,77.57,77.57,100,50,100z
		 M50,3.425C24.319,3.425,3.426,24.319,3.426,50c0,25.682,20.894,46.574,46.574,46.574c25.682,0,46.575-20.894,46.575-46.574
		S75.682,3.426,50,3.425z"/>
	<g>
		<path fill="#33E0B0" d="M51.961,18.75H38.555l-2.689,4.86l7.956,11.265c1.876,2.621,4.919,4.236,8.14,4.236
			c5.516,0,10.003-4.665,10.003-10.181S57.477,18.75,51.961,18.75z M51.961,35.737c-2.118,0-4.12-1.445-5.353-3.167L39.194,21.75
			h12.767c3.627,0,6.578,3.366,6.578,6.993S55.588,35.737,51.961,35.737z"/>
		<path fill="#33E0B0" d="M53.8,54.064c0-5.516-4.615-10.151-10.131-10.151h-5.821l-1.978,3.425v0.001h7.799
			c3.627,0,6.705,3.098,6.705,6.725v21.453H37.841l-1.971,3.42h30.194l1.985-3.42H53.8V54.064z"/>
	</g>
</g>
</svg>
