<?xml version="1.0" encoding="utf-8"?>
<!-- Generator: Adobe Illustrator 15.0.0, SVG Export Plug-In . SVG Version: 6.00 Build 0)  -->
<!DOCTYPE svg PUBLIC "-//W3C//DTD SVG 1.1//EN" "http://www.w3.org/Graphics/SVG/1.1/DTD/svg11.dtd">
<svg version="1.1" id="Layer_1" xmlns="http://www.w3.org/2000/svg" xmlns:xlink="http://www.w3.org/1999/xlink" x="0px" y="0px"
	 width="20px" height="20px" viewBox="0 0 20 20" enable-background="new 0 0 20 20" xml:space="preserve">
<g>
	<path fill="#FAFAFA" d="M16.65,12.04c-0.386-0.005-0.774-0.044-1.15,0.021c-0.749,2.798-3.243,4.299-5.496,4.33
		c-1.225,0.017-2.35-0.304-3.365-0.979c-1.222-0.812-2.021-1.935-2.398-3.361c-0.411-0.033-0.801-0.036-1.23,0.003
		c0.213,1.17,0.707,2.17,1.446,3.047c1.237,1.468,2.831,2.287,4.717,2.522c0.097,0.441,0.087,0.946-0.027,1.278
		c-0.153,0-0.313,0.001-0.473,0c-0.292-0.002-0.51,0.117-0.628,0.393c-0.118,0.282-0.027,0.513,0.185,0.713
		c0.041,0.038,0.097,0.066,0.1,0.132c1.026,0,2.054,0.002,3.081,0.002c0.022-0.036,0.038-0.077,0.066-0.105
		c0.23-0.202,0.342-0.438,0.214-0.742c-0.123-0.296-0.363-0.396-0.67-0.396c-0.157,0-0.323,0.042-0.511-0.063
		c-0.005-0.386-0.048-0.787,0.028-1.211c1.526-0.179,2.863-0.755,4.007-1.763C15.728,14.822,16.758,12.961,16.65,12.04z"/>
	<path fill="#FAFAFA" d="M5.502,7.64c0,0.939-0.003,1.878,0.001,2.816c0,0.308-0.011,0.62,0.033,0.922
		c0.335,2.29,2.356,3.929,4.714,3.753c2.198-0.162,3.975-2.059,3.987-4.334c0.011-2.097,0-4.196,0.005-6.292
		c0-0.37-0.044-0.733-0.137-1.09c-0.555-2.117-2.596-3.504-4.769-3.244c-2.17,0.264-3.81,2.099-3.833,4.3
		C5.492,5.527,5.502,6.584,5.502,7.64L5.502,7.64z M6.746,7.651c0-1.055-0.009-2.111,0.003-3.167
		c0.022-1.792,1.51-3.178,3.302-3.089c1.571,0.081,2.909,1.393,2.932,2.967c0.035,2.184,0.035,4.369,0.002,6.553
		c-0.025,1.667-1.455,2.986-3.141,2.977c-1.676-0.01-3.066-1.358-3.094-3.03c-0.021-1.069-0.003-2.14-0.003-3.21
		C6.747,7.651,6.747,7.651,6.746,7.651z"/>
</g>
</svg>
