<?xml version="1.0" encoding="utf-8"?>
<!-- Generator: Adobe Illustrator 15.0.0, SVG Export Plug-In . SVG Version: 6.00 Build 0)  -->
<!DOCTYPE svg PUBLIC "-//W3C//DTD SVG 1.1//EN" "http://www.w3.org/Graphics/SVG/1.1/DTD/svg11.dtd">
<svg version="1.1" id="Layer_1" xmlns="http://www.w3.org/2000/svg" xmlns:xlink="http://www.w3.org/1999/xlink" x="0px" y="0px"
	 width="400px" height="90px" viewBox="0 0 400 90" enable-background="new 0 0 400 90" xml:space="preserve">
<rect x="16.5" y="14.274" fill="none" width="285.5" height="20"/>
<text transform="matrix(1 0 0 1 16.5 26.4619)" fill="#646464" font-family="'RobotoSlab-Regular'" font-size="16">Problem to solve</text>
<g>
	<path fill="none" stroke="#646464" stroke-width="0.75" stroke-miterlimit="10" d="M39.667,74.831
		c-0.161-0.066-0.349-0.145-0.552-0.229c-0.608-0.252-1-0.936-1.001-1.537c-0.001-0.6,0.391-1.283,0.999-1.537
		c0,0,0.245-0.103,0.551-0.229c0.306-0.127,0.356-0.699,0.116-1.277c-0.241-0.58-0.682-0.949-0.987-0.822
		c-0.162,0.067-0.352,0.146-0.552,0.229c-0.61,0.254-1.37,0.045-1.792-0.379c-0.426-0.425-0.633-1.184-0.381-1.794
		c0,0,0.101-0.247,0.227-0.55c0.126-0.305-0.241-0.747-0.821-0.986s-1.152-0.188-1.277,0.117c-0.068,0.161-0.146,0.35-0.229,0.551
		c-0.253,0.609-0.937,0.999-1.537,1c-0.599,0.002-1.286-0.388-1.538-0.997c0,0-0.103-0.247-0.229-0.552
		c-0.127-0.305-0.698-0.357-1.278-0.116c-0.581,0.241-0.947,0.682-0.82,0.987c0.067,0.162,0.145,0.35,0.229,0.551
		c0.253,0.61,0.044,1.37-0.379,1.793c-0.426,0.426-1.186,0.634-1.794,0.382c0,0-0.246-0.103-0.551-0.228
		c-0.307-0.127-0.746,0.242-0.987,0.822c-0.239,0.58-0.188,1.152,0.118,1.277c0.163,0.067,0.351,0.145,0.551,0.229
		c0.61,0.252,0.999,0.936,1.001,1.535c0,0.601-0.388,1.285-0.997,1.537c0,0-0.247,0.104-0.553,0.23
		c-0.304,0.125-0.357,0.699-0.115,1.279c0.24,0.578,0.683,0.945,0.985,0.818c0.162-0.065,0.352-0.145,0.554-0.229
		c0.608-0.252,1.368-0.043,1.791,0.381c0.426,0.426,0.635,1.185,0.382,1.795c0,0-0.103,0.246-0.229,0.551
		c-0.125,0.304,0.244,0.744,0.824,0.984c0.579,0.24,1.151,0.188,1.277-0.117c0.067-0.162,0.145-0.35,0.228-0.551
		c0.252-0.609,0.933-1,1.536-1.002c0.601,0,1.285,0.389,1.538,0.999c0,0,0.103,0.247,0.229,0.552c0.126,0.303,0.7,0.355,1.278,0.115
		c0.58-0.242,0.947-0.682,0.82-0.986c-0.067-0.162-0.146-0.351-0.227-0.553c-0.256-0.609-0.047-1.369,0.377-1.793
		c0.427-0.424,1.185-0.633,1.793-0.381c0,0,0.248,0.102,0.553,0.229c0.304,0.125,0.746-0.242,0.984-0.822
		C40.023,75.529,39.972,74.957,39.667,74.831z M31.22,76.01c-1.624-0.673-2.396-2.536-1.728-4.155
		c0.673-1.625,2.535-2.398,4.158-1.725c1.623,0.67,2.396,2.53,1.724,4.156C34.703,75.906,32.842,76.681,31.22,76.01z"/>
	<path fill="none" stroke="#646464" stroke-width="0.5" stroke-miterlimit="10" d="M22.319,75.983
		c-0.068-0.074-0.146-0.16-0.229-0.252c-0.253-0.283-0.283-0.731-0.136-1.041c0.147-0.309,0.518-0.564,0.893-0.546
		c0,0,0.152,0.009,0.342,0.019c0.188,0.009,0.355-0.273,0.374-0.631c0.02-0.358-0.116-0.656-0.304-0.667
		c-0.103-0.005-0.219-0.011-0.343-0.017c-0.375-0.02-0.716-0.314-0.831-0.639c-0.114-0.322-0.037-0.767,0.245-1.018
		c0,0,0.113-0.103,0.254-0.229c0.14-0.126,0.059-0.443-0.181-0.711c-0.24-0.266-0.548-0.381-0.688-0.255
		c-0.074,0.067-0.16,0.146-0.254,0.229c-0.28,0.252-0.729,0.285-1.037,0.137c-0.31-0.149-0.567-0.518-0.548-0.895
		c0,0,0.008-0.153,0.018-0.34c0.011-0.189-0.271-0.357-0.632-0.376c-0.357-0.02-0.655,0.119-0.666,0.308
		c-0.004,0.1-0.011,0.215-0.017,0.34c-0.021,0.375-0.313,0.717-0.638,0.83c-0.322,0.116-0.766,0.037-1.018-0.243
		c0,0-0.103-0.114-0.23-0.255c-0.125-0.139-0.442-0.06-0.709,0.182c-0.267,0.238-0.38,0.549-0.254,0.688
		c0.068,0.074,0.146,0.16,0.228,0.254c0.252,0.281,0.286,0.73,0.138,1.039s-0.519,0.566-0.896,0.547c0,0-0.151-0.01-0.339-0.02
		s-0.357,0.273-0.375,0.631c-0.019,0.358,0.119,0.656,0.306,0.667c0.1,0.005,0.217,0.01,0.341,0.017
		c0.376,0.021,0.717,0.314,0.83,0.638c0.116,0.323,0.037,0.767-0.244,1.019c0,0-0.113,0.103-0.255,0.229
		c-0.139,0.125-0.057,0.444,0.182,0.71c0.24,0.267,0.548,0.38,0.688,0.255c0.073-0.068,0.162-0.145,0.254-0.228
		c0.28-0.253,0.729-0.284,1.038-0.136c0.309,0.146,0.566,0.516,0.547,0.893c0,0-0.008,0.152-0.019,0.34
		c-0.009,0.188,0.272,0.356,0.633,0.375c0.356,0.02,0.655-0.118,0.665-0.306c0.005-0.101,0.011-0.216,0.018-0.341
		c0.02-0.376,0.314-0.717,0.637-0.831c0.324-0.114,0.767-0.036,1.019,0.244c0,0,0.104,0.114,0.229,0.255
		c0.126,0.14,0.445,0.059,0.711-0.182S22.445,76.123,22.319,75.983z M18.929,75.108c-1.003-0.053-1.772-0.91-1.719-1.911
		c0.052-1.003,0.907-1.772,1.909-1.72c1.005,0.053,1.774,0.908,1.72,1.91C20.787,74.389,19.932,75.161,18.929,75.108z"/>
</g>
</svg>
