<?xml version="1.0" encoding="utf-8"?>
<!-- Generator: Adobe Illustrator 15.0.0, SVG Export Plug-In . SVG Version: 6.00 Build 0)  -->
<!DOCTYPE svg PUBLIC "-//W3C//DTD SVG 1.1//EN" "http://www.w3.org/Graphics/SVG/1.1/DTD/svg11.dtd">
<svg version="1.1"
	 id="Layer_1" xmlns:inkscape="http://www.inkscape.org/namespaces/inkscape" xmlns:sodipodi="http://sodipodi.sourceforge.net/DTD/sodipodi-0.dtd" xmlns:svg="http://www.w3.org/2000/svg" xmlns:rdf="http://www.w3.org/1999/02/22-rdf-syntax-ns#" xmlns:cc="http://creativecommons.org/ns#" xmlns:dc="http://purl.org/dc/elements/1.1/"
	 xmlns="http://www.w3.org/2000/svg" xmlns:xlink="http://www.w3.org/1999/xlink" x="0px" y="0px" width="100px" height="100px"
	 viewBox="-30 -30 100 100" enable-background="new -30 -30 100 100" xml:space="preserve">
<g transform="translate(0,-952.36218)">
	<path d="M5.698,952.788c-1.71,0-3.118,1.409-3.118,3.118v35.336c0,1.714,1.408,3.122,3.118,3.122h58.203
		c1.713,0,3.122-1.408,3.122-3.122v-35.336c0-1.709-1.409-3.118-3.122-3.118H5.698z M6.477,954.868h56.648l-28.322,24.588
		L6.477,954.868z M4.659,956.036l29.458,25.594c0.393,0.341,0.975,0.341,1.364,0l29.461-25.594v35.207
		c0,0.597-0.444,1.041-1.041,1.041H5.698c-0.594,0-1.039-0.444-1.039-1.041V956.036z M-25.483,960.064
		c-0.574,0-1.039,0.466-1.039,1.04s0.465,1.039,1.039,1.039h20.787c0.574,0,1.041-0.465,1.041-1.039s-0.466-1.04-1.041-1.04H-25.483
		z M-21.326,972.537c-0.574,0-1.041,0.465-1.041,1.04s0.467,1.038,1.041,1.038h16.629c0.574,0,1.041-0.464,1.041-1.038
		s-0.466-1.04-1.041-1.04H-21.326z M-17.168,985.01c-0.574,0-1.039,0.464-1.039,1.038s0.465,1.041,1.039,1.041h12.472
		c0.574,0,1.041-0.467,1.041-1.041s-0.466-1.038-1.041-1.038H-17.168z"/>
</g>
</svg>
