<?xml version="1.0" encoding="utf-8"?>
<!-- Generator: Adobe Illustrator 15.0.0, SVG Export Plug-In . SVG Version: 6.00 Build 0)  -->
<!DOCTYPE svg PUBLIC "-//W3C//DTD SVG 1.1//EN" "http://www.w3.org/Graphics/SVG/1.1/DTD/svg11.dtd">
<svg version="1.1" id="Layer_1" xmlns="http://www.w3.org/2000/svg" xmlns:xlink="http://www.w3.org/1999/xlink" x="0px" y="0px"
	 width="400px" height="90px" viewBox="0 0 400 90" enable-background="new 0 0 400 90" xml:space="preserve">
<rect x="16.5" y="13.487" fill="none" width="285.5" height="20"/>
<text transform="matrix(1 0 0 1 16.5 25.6748)" fill="#646464" font-family="'RobotoSlab-Regular'" font-size="16">Target audiences</text>
<g>
	<path fill="#646464" d="M29.72,70.362L29.72,70.362l-0.214-0.003c-0.075-0.001-1.907-0.037-3.104-0.571
		c0.006,0-0.355-0.098-0.366-0.713c0.004-0.066,0.073-0.869,0.615-1.672c0.027-0.039,0.22-0.289,0.637-0.449
		c0.301-0.092,0.815-0.283,1.015-0.438h-0.001c-0.005,0,0.007-0.018,0.026-0.041c0.01-0.031,0.021-0.068,0.025-0.092
		c0-0.006,0-0.01,0-0.016c-0.105-0.164-0.19-0.342-0.25-0.522c-0.074-0.075-0.149-0.196-0.179-0.382
		c-0.031-0.107-0.063-0.272-0.05-0.424c-0.047-0.149-0.109-0.441-0.066-0.832c0.014-0.074,0.243-1.274,1.328-1.457
		c0.001-0.002,0.234-0.057,0.535-0.057c0.349,0,0.645,0.073,0.881,0.218c0.447,0.163,0.678,0.552,0.75,0.79
		c0.246,0.453,0.167,0.969,0.108,1.211c0.035,0.147,0.017,0.324-0.057,0.527c-0.007,0.043-0.067,0.297-0.206,0.478
		c-0.064,0.163-0.148,0.321-0.25,0.47c0.008,0.025,0.026,0.089,0.036,0.125c0.019,0.016,0.108,0.094,0.368,0.185
		c0.26,0.082,1.123,0.383,1.398,0.83c0.182,0.172,0.645,0.728,0.515,1.853c-0.004,0.08-0.057,0.277-0.354,0.464
		C32.749,69.893,31.502,70.362,29.72,70.362z M26.718,69.203c1.133,0.458,2.784,0.489,2.801,0.49l0.201,0.002
		c1.604,0,2.751-0.411,2.839-0.442c0.084-0.914-0.306-1.234-0.323-1.248c-0.041-0.033-0.081-0.081-0.104-0.129
		c-0.06-0.132-0.566-0.396-1.041-0.547c-0.405-0.143-0.648-0.311-0.755-0.518c-0.012-0.022-0.022-0.05-0.03-0.078h-0.002
		c-0.021-0.076-0.036-0.135-0.047-0.18c-0.018-0.034-0.029-0.072-0.033-0.113c-0.002-0.018-0.003-0.037-0.004-0.056
		c-0.022-0.095-0.003-0.198,0.062-0.281c0.111-0.144,0.202-0.306,0.262-0.472c0.017-0.045,0.043-0.086,0.077-0.12
		c0.028-0.034,0.076-0.168,0.094-0.253c0.052-0.152,0.048-0.195,0.048-0.196c-0.053-0.083-0.048-0.145-0.018-0.237
		c0.006-0.021,0.155-0.497-0.039-0.826c-0.018-0.031-0.031-0.063-0.039-0.098c-0.001-0.005-0.074-0.269-0.405-0.394
		c-0.185-0.106-0.369-0.147-0.59-0.147c-0.222,0-0.399,0.043-0.401,0.043c-0.645,0.109-0.797,0.87-0.804,0.902
		c-0.037,0.344,0.057,0.573,0.057,0.576c0.034,0.08,0.036,0.174,0.004,0.255l0,0c0.008,0,0.025,0.106,0.047,0.186
		c0,0,0.011,0.04,0.016,0.062c0.06,0.044,0.104,0.107,0.123,0.18c0.05,0.178,0.135,0.354,0.247,0.512
		c0.042,0.059,0.062,0.127,0.062,0.195c0.005,0.051,0.007,0.124-0.004,0.209c-0.004,0.027-0.011,0.054-0.021,0.078
		c-0.011,0.043-0.027,0.099-0.052,0.173c-0.001,0.004-0.003,0.008-0.004,0.012c-0.012,0.033-0.029,0.065-0.051,0.093
		c-0.045,0.061-0.09,0.116-0.136,0.167c-0.405,0.32-1.165,0.556-1.25,0.582c-0.209,0.081-0.309,0.202-0.312,0.208
		c-0.429,0.636-0.49,1.298-0.491,1.305C26.702,69.147,26.711,69.183,26.718,69.203z"/>
	<g>
		<polygon fill="#646464" points="29.637,74.369 29.637,74.369 29.637,74.369 		"/>
		<path fill="#646464" d="M33.133,75.483l-3.029-1.412v-3.342H29.17v3.342l-3.029,1.412l0.396,0.846l3.101-1.445l3.101,1.445
			L33.133,75.483z M29.637,74.369L29.637,74.369L29.637,74.369L29.637,74.369z"/>
	</g>
	<path fill="#646464" d="M22.719,78.53L22.719,78.53l-0.214-0.002c-0.075-0.002-1.908-0.037-3.104-0.571
		c0,0.001-0.001,0.001-0.001,0.001c-0.019,0-0.354-0.119-0.365-0.715c0.004-0.066,0.072-0.868,0.615-1.672
		c0.027-0.038,0.219-0.289,0.636-0.449c0.301-0.092,0.815-0.283,1.015-0.438c-0.001,0.004,0.006-0.016,0.029-0.046
		c0.004-0.017,0.017-0.06,0.021-0.086c0-0.003,0-0.006,0-0.009c0-0.004,0-0.008-0.001-0.011c-0.104-0.163-0.188-0.339-0.248-0.519
		c-0.074-0.076-0.149-0.197-0.179-0.385c-0.031-0.104-0.064-0.27-0.051-0.421c-0.047-0.15-0.109-0.44-0.066-0.833
		c0.014-0.074,0.244-1.273,1.328-1.457c0.001-0.001,0.235-0.057,0.537-0.057c0.348,0,0.644,0.073,0.879,0.218
		c0.448,0.163,0.679,0.552,0.751,0.79c0.249,0.459,0.166,0.977,0.107,1.212c0.035,0.147,0.017,0.323-0.057,0.526
		c-0.006,0.043-0.066,0.297-0.206,0.477c-0.063,0.163-0.148,0.322-0.249,0.471c0.008,0.025,0.024,0.084,0.035,0.12
		c0.025,0.026,0.118,0.103,0.368,0.19c0.26,0.082,1.123,0.383,1.399,0.83c0.181,0.171,0.644,0.728,0.515,1.852
		c-0.004,0.08-0.058,0.277-0.355,0.464C25.747,78.062,24.5,78.53,22.719,78.53z M19.717,77.372c1.129,0.456,2.784,0.489,2.802,0.49
		l0.2,0.002c1.603,0,2.751-0.411,2.838-0.443c0.084-0.914-0.305-1.234-0.322-1.248c-0.041-0.033-0.081-0.08-0.103-0.129
		c-0.061-0.131-0.568-0.396-1.043-0.546c-0.398-0.14-0.649-0.313-0.755-0.519c-0.011-0.021-0.022-0.05-0.03-0.078h-0.002
		c-0.021-0.076-0.036-0.135-0.047-0.181c-0.019-0.036-0.03-0.075-0.033-0.118c-0.002-0.021-0.004-0.045-0.004-0.068
		c-0.018-0.09,0.002-0.184,0.062-0.262c0.112-0.145,0.202-0.307,0.263-0.473c0.016-0.045,0.043-0.088,0.077-0.122
		c0.026-0.03,0.072-0.153,0.093-0.251c0.052-0.151,0.048-0.195,0.048-0.195c-0.054-0.085-0.05-0.148-0.017-0.244
		c0.045-0.134,0.125-0.542-0.039-0.819c-0.019-0.03-0.031-0.063-0.039-0.099c-0.002-0.004-0.075-0.268-0.406-0.394
		c-0.185-0.105-0.368-0.147-0.588-0.147c-0.223,0-0.401,0.043-0.403,0.043c-0.645,0.109-0.797,0.87-0.803,0.902
		c-0.037,0.344,0.056,0.574,0.057,0.576c0.033,0.08,0.035,0.174,0.003,0.254c0.008,0,0.028,0.116,0.048,0.186
		c0,0,0.01,0.041,0.016,0.062c0.06,0.044,0.104,0.107,0.123,0.18c0.05,0.178,0.135,0.355,0.246,0.512
		c0.042,0.059,0.062,0.127,0.062,0.193c0.005,0.052,0.008,0.126-0.005,0.214c-0.003,0.026-0.01,0.051-0.019,0.075
		c-0.012,0.043-0.028,0.102-0.055,0.18c-0.002,0.005-0.004,0.011-0.006,0.016c-0.011,0.029-0.026,0.057-0.045,0.082
		c-0.046,0.061-0.092,0.116-0.138,0.167c-0.405,0.32-1.165,0.556-1.25,0.582c-0.209,0.081-0.309,0.203-0.312,0.208
		c-0.429,0.637-0.489,1.298-0.49,1.305C19.701,77.316,19.71,77.353,19.717,77.372z"/>
	<path fill="#646464" d="M36.722,78.53L36.722,78.53l-0.214-0.003c-0.075-0.001-1.908-0.038-3.105-0.571l0,0
		c-0.02,0-0.355-0.118-0.366-0.713c0.004-0.066,0.073-0.869,0.615-1.672c0.028-0.039,0.221-0.289,0.638-0.449
		c0.3-0.092,0.814-0.284,1.014-0.438c-0.006,0.004,0.005-0.014,0.026-0.043c0.01-0.029,0.02-0.064,0.024-0.09
		c0-0.005,0-0.01,0.001-0.016c-0.105-0.165-0.191-0.343-0.251-0.523c-0.073-0.076-0.149-0.197-0.179-0.383
		c-0.031-0.105-0.063-0.27-0.05-0.421c-0.047-0.15-0.109-0.441-0.066-0.833c0.013-0.074,0.243-1.274,1.328-1.457
		c0.001-0.002,0.235-0.057,0.536-0.057c0.349,0,0.645,0.073,0.881,0.218c0.447,0.163,0.678,0.552,0.75,0.79
		c0.246,0.454,0.167,0.969,0.108,1.211c0.035,0.147,0.016,0.324-0.057,0.526c-0.006,0.044-0.068,0.298-0.206,0.478
		c-0.064,0.163-0.148,0.322-0.25,0.471c0.009,0.026,0.027,0.094,0.037,0.129c0.017,0.012,0.105,0.09,0.366,0.182
		c0.26,0.081,1.124,0.383,1.399,0.829c0.182,0.172,0.645,0.729,0.514,1.853c-0.004,0.08-0.057,0.277-0.354,0.463
		C39.751,78.061,38.503,78.53,36.722,78.53z M33.719,77.371c1.132,0.458,2.784,0.489,2.802,0.489l0.201,0.003
		c1.593,0,2.748-0.41,2.838-0.443c0.085-0.913-0.305-1.233-0.322-1.247c-0.042-0.033-0.081-0.081-0.104-0.129
		c-0.061-0.131-0.566-0.396-1.041-0.547c-0.399-0.139-0.65-0.312-0.756-0.518c-0.006-0.018-0.017-0.046-0.025-0.076l-0.005,0.002
		c-0.021-0.078-0.037-0.137-0.048-0.184c-0.018-0.033-0.03-0.072-0.034-0.113c-0.002-0.023-0.003-0.048-0.004-0.073
		c-0.018-0.089,0.001-0.185,0.062-0.264c0.11-0.144,0.202-0.306,0.262-0.472c0.017-0.045,0.043-0.087,0.077-0.121
		c0.026-0.031,0.073-0.155,0.094-0.253c0.051-0.151,0.047-0.194,0.047-0.195c-0.052-0.083-0.048-0.145-0.018-0.237
		c0.055-0.17,0.118-0.562-0.039-0.826c-0.018-0.03-0.03-0.062-0.038-0.098c-0.001-0.005-0.075-0.269-0.405-0.394
		c-0.185-0.105-0.369-0.147-0.59-0.147c-0.222,0-0.4,0.043-0.402,0.043c-0.645,0.109-0.797,0.87-0.803,0.902
		c-0.037,0.344,0.057,0.573,0.057,0.576c0.034,0.08,0.036,0.174,0.004,0.254l0,0c0.008,0,0.025,0.107,0.047,0.187l0.018,0.073
		c0.083,0.043,0.097,0.078,0.121,0.168c0.05,0.176,0.134,0.354,0.246,0.512c0.038,0.055,0.058,0.116,0.061,0.178
		c0.006,0.051,0.01,0.131-0.003,0.227c-0.004,0.029-0.011,0.057-0.021,0.082c-0.011,0.043-0.027,0.101-0.053,0.176
		c-0.009,0.018-0.038,0.08-0.051,0.097c-0.046,0.061-0.091,0.115-0.136,0.166c-0.407,0.322-1.166,0.558-1.251,0.584
		c-0.21,0.081-0.31,0.204-0.313,0.208c-0.429,0.637-0.49,1.297-0.491,1.305C33.703,77.315,33.712,77.351,33.719,77.371z"/>
</g>
</svg>
