<?xml version="1.0" encoding="utf-8"?>
<!-- Generator: Adobe Illustrator 15.0.0, SVG Export Plug-In . SVG Version: 6.00 Build 0)  -->
<!DOCTYPE svg PUBLIC "-//W3C//DTD SVG 1.1//EN" "http://www.w3.org/Graphics/SVG/1.1/DTD/svg11.dtd">
<svg version="1.1" id="Layer_1" xmlns="http://www.w3.org/2000/svg" xmlns:xlink="http://www.w3.org/1999/xlink" x="0px" y="0px"
	 width="400px" height="90px" viewBox="0 0 400 90" enable-background="new 0 0 400 90" xml:space="preserve">
<rect x="16.5" y="12.85" fill="none" width="285.5" height="20"/>
<text transform="matrix(1 0 0 1 16.5 25.0371)" fill="#646464" font-family="'RobotoSlab-Regular'" font-size="16">Tone of voice</text>
<g transform="matrix( 1, 0, 0, 1, 0,0) ">
	<g>
		<g id="a">
			<path fill="#646464" d="M31.509,76.809C32.97,75.342,33.7,73.572,33.7,71.5c0-2.066-0.73-3.834-2.191-5.301
				C30.042,64.733,28.272,64,26.2,64s-3.839,0.733-5.3,2.199c-1.467,1.467-2.2,3.234-2.2,5.301c0,2.072,0.733,3.842,2.2,5.309
				C22.361,78.27,24.128,79,26.2,79S30.042,78.27,31.509,76.809 M26.2,65.275c1.728,0,3.197,0.605,4.408,1.816
				c1.223,1.223,1.834,2.691,1.834,4.408c0,1.728-0.611,3.2-1.834,4.416c-1.211,1.217-2.681,1.826-4.408,1.826
				c-1.717,0-3.186-0.609-4.408-1.826c-1.217-1.216-1.825-2.688-1.825-4.416c0-1.717,0.608-3.186,1.825-4.408
				C23.015,65.881,24.483,65.275,26.2,65.275 M21.917,72.941c0.011,0.139,0.069,0.253,0.175,0.342c2.728,2.378,5.455,2.378,8.184,0
				c0.1-0.089,0.155-0.203,0.166-0.342c0.006-0.133-0.032-0.253-0.116-0.358c-0.095-0.1-0.208-0.155-0.342-0.167
				c-0.139-0.005-0.258,0.037-0.358,0.125c-2.294,2.001-4.592,2.001-6.892,0c-0.1-0.088-0.217-0.13-0.35-0.125
				c-0.14,0.012-0.25,0.067-0.334,0.167C21.956,72.688,21.911,72.809,21.917,72.941 M22.009,70.191c0,0.283,0.094,0.522,0.283,0.717
				c0.205,0.206,0.449,0.309,0.733,0.309c0.283,0,0.522-0.103,0.716-0.309c0.206-0.194,0.31-0.434,0.31-0.717
				c0-0.289-0.104-0.533-0.31-0.732c-0.193-0.189-0.433-0.284-0.716-0.284c-0.284,0-0.528,0.095-0.733,0.284
				C22.103,69.658,22.009,69.902,22.009,70.191 M29.367,71.217c0.282,0,0.522-0.103,0.716-0.309
				c0.206-0.194,0.309-0.434,0.309-0.717c0-0.289-0.103-0.533-0.309-0.732c-0.193-0.189-0.434-0.284-0.716-0.284
				c-0.283,0-0.528,0.095-0.733,0.284c-0.189,0.199-0.284,0.443-0.284,0.732c0,0.283,0.095,0.522,0.284,0.717
				C28.839,71.114,29.084,71.217,29.367,71.217z"/>
		</g>
	</g>
</g>
</svg>
